<svg xmlns="http://www.w3.org/2000/svg" viewBox="0 0 46.53 68.59"><defs><style>.cls-1{fill:#231f20;}.cls-2{fill:#fff;}.cls-3{fill:none;stroke:#231f20;stroke-linecap:round;stroke-miterlimit:10;stroke-width:2px;}.cls-4{fill:#d8d9de;}.cls-5{fill:#3a3838;}</style></defs><g id="Layer_2" data-name="Layer 2"><g id="Layer_1-2" data-name="Layer 1"><rect class="cls-1" y="5.26" width="46.53" height="63.33" rx="3.17"/><rect class="cls-2" x="4.2" y="7.86" width="38.12" height="57.44"/><path class="cls-1" d="M28.22,16.5h-3a.25.25,0,0,1-.25-.25V13.2a.25.25,0,0,0-.25-.25H21.86a.25.25,0,0,0-.25.25v3.05a.25.25,0,0,1-.25.25H18.31a.25.25,0,0,0-.25.25v2.8a.25.25,0,0,0,.25.25h3.05a.25.25,0,0,1,.25.25v3.06a.25.25,0,0,0,.25.25h2.81a.25.25,0,0,0,.25-.25V20.05a.25.25,0,0,1,.25-.25h3a.25.25,0,0,0,.25-.25v-2.8A.25.25,0,0,0,28.22,16.5Z"/><line class="cls-3" x1="9.02" y1="30.82" x2="23.6" y2="30.82"/><line class="cls-3" x1="9.02" y1="35.33" x2="19.73" y2="35.33"/><line class="cls-3" x1="9.02" y1="39.83" x2="31.31" y2="39.83"/><line class="cls-3" x1="9.02" y1="44.33" x2="16.58" y2="44.33"/><line class="cls-3" x1="19.53" y1="44.33" x2="22.6" y2="44.33"/><line class="cls-3" x1="22.5" y1="35.33" x2="24.7" y2="35.33"/><line class="cls-3" x1="27.85" y1="48.84" x2="31.41" y2="48.84"/><line class="cls-3" x1="27.3" y1="44.33" x2="37.91" y2="44.33"/><line class="cls-3" x1="9.02" y1="48.84" x2="24.91" y2="48.84"/><line class="cls-3" x1="27.85" y1="35.33" x2="37.91" y2="35.33"/><line class="cls-3" x1="26.62" y1="30.82" x2="30.32" y2="30.82"/><line class="cls-3" x1="33.59" y1="30.82" x2="37.91" y2="30.82"/><polyline class="cls-4" points="10.23 65.29 10.23 59.26 4.2 59.26"/><polyline class="cls-1" points="3.73 58.79 3.73 65.77 10.71 65.77"/><path class="cls-5" d="M29.86,3.57h-3a3.57,3.57,0,1,0-7.14,0h-3a3,3,0,0,0-3,3v2.3H32.87V6.58A3,3,0,0,0,29.86,3.57Z"/><circle class="cls-2" cx="23.26" cy="2.69" r="1.15"/></g></g></svg>