<svg xmlns="http://www.w3.org/2000/svg" viewBox="0 0 52.69 72.95"><defs><style>.cls-1,.cls-6{fill:#231f20;}.cls-2{fill:#d8d9de;}.cls-3,.cls-4,.cls-7{fill:none;stroke:#fff;stroke-miterlimit:10;}.cls-4{stroke-dasharray:3.84 3.84;}.cls-5{fill:#fff;opacity:0.5;}.cls-6{opacity:0.08;}.cls-7{stroke-linecap:round;}</style></defs><g id="Layer_2" data-name="Layer 2"><g id="Layer_1-2" data-name="Layer 1"><rect class="cls-1" y="0.17" width="52.69" height="72.78" rx="5.1"/><path class="cls-2" d="M42.23.17s0,3.57-3.17,8.36c-2.36,3.58-7.59,8.06-10.35,10.6C15,31.81,9.32,39.4,17,49.86S36.55,67.25,52.69,61.2V5.27a5.1,5.1,0,0,0-5.1-5.1Z"/><path class="cls-3" d="M38.38.17S38.13.86,37.59,2"/><path class="cls-4" d="M35.78,5.39A39,39,0,0,1,28,14.8C20.53,21.28,7.92,32.63,11.52,44.4c3.29,10.71,12.13,19.48,25.07,20.84"/><path class="cls-3" d="M38.51,65.38q1,0,2,0v2"/><line class="cls-3" x1="40.52" y1="70.95" x2="40.52" y2="72.95"/><path class="cls-5" d="M42.47,13c-4.18,1-26,19.65-23.13,32.11,2.72,12,19.58,14.94,23.13,14.59S30,50.53,29.86,41.91C29.72,32.56,47.62,11.72,42.47,13Z"/><path class="cls-6" d="M44.52.17s2,16.76,5.08,28.65c.94,3.68,2,16,3.09,18.13V5.27a5.1,5.1,0,0,0-5.1-5.1Z"/><line class="cls-7" x1="4.98" y1="6.95" x2="11.7" y2="6.95"/><line class="cls-7" x1="14.02" y1="6.95" x2="17.38" y2="6.95"/><line class="cls-7" x1="17.65" y1="9.45" x2="19.33" y2="9.45"/><line class="cls-7" x1="15.2" y1="9.45" x2="4.98" y2="9.45"/><line class="cls-7" x1="22.93" y1="11.95" x2="4.98" y2="11.95"/><line class="cls-7" x1="21.73" y1="9.45" x2="22.93" y2="9.45"/><line class="cls-7" x1="20.01" y1="6.95" x2="22.93" y2="6.95"/></g></g></svg>