<svg xmlns="http://www.w3.org/2000/svg" viewBox="0 0 69.46 71.86"><defs><style>.cls-1{fill:#231f20;}.cls-2{fill:#fff;}</style></defs><g id="Layer_2" data-name="Layer 2"><g id="Layer_1-2" data-name="Layer 1"><path class="cls-1" d="M38.11,14.21a1.48,1.48,0,0,0-.86-.17c-.88.09-1,.86-1,1.79A51.81,51.81,0,0,1,36.49,22c-1.22,2.24-4.43,6.79-6.37,11-4.61,10-3.67,15-2.25,22.62l.17.92c.56,3,.1,4.08-1.44,5-.39.22-7.85,5.52-7.9,5.55A1.58,1.58,0,0,0,18,69.12c.49.78,1.23.68,2,.17.21-.15,5.1-3.63,6.78-4.87.23-.17.54-.34.86-.53,1.7-1,4.55-2.6,3.53-8.08L31,54.88c-1.38-7.42-2.14-11.52,2-20.46,2-4.21,4.54-10,5.68-12.11.23-.41.29-.58-.28-6.64C38.32,15.06,38.59,14.45,38.11,14.21Z"/><path class="cls-1" d="M51.12,28.59a29.23,29.23,0,0,0-5.47-3.71A28.73,28.73,0,0,0,37.11,22c.16-.91-.26-1.05-.18-1.65a30.84,30.84,0,0,1,9.24,3.11A31.94,31.94,0,0,1,52.71,28C52,28.43,51.81,28.08,51.12,28.59Z"/><path class="cls-1" d="M30,11.09a7.1,7.1,0,0,0,9.12,4.77,7.77,7.77,0,0,0,4.48-9.7,7.09,7.09,0,0,0-9.12-4.77A7.77,7.77,0,0,0,30,11.09ZM32,10.38a5.54,5.54,0,0,1,3.21-6.92,5.06,5.06,0,0,1,6.51,3.4,5.55,5.55,0,0,1-3.21,6.93A5.06,5.06,0,0,1,32,10.38Z"/><path class="cls-1" d="M56.78,24.44c-.57.31-16,8.2-20.64,11.77-4.12,3.18-8.61,7-8.49,11.89.07,3.15,1.21,6.16,1.87,9.73.59,3.21-.06,3.62-1.35,4.43-.3.19-7.58,5.38-7.63,5.42-.73.52-1.1,1.21-.61,2s1.27.74,2,.23c.2-.15,7.61-4.58,7.84-4.72,2-1.28,3.81-2.86,2.86-8-1-5.62-.77-13.5,6.41-19.05,4.43-3.42,18-11.66,18.14-11.73.78-.42.88-.2.48-1C57.51,25,57.24,24.19,56.78,24.44Z"/><path class="cls-1" d="M55.47,25.44a7.1,7.1,0,0,0,9.12,4.77,7.77,7.77,0,0,0,4.49-9.7A7.08,7.08,0,0,0,60,15.74,7.77,7.77,0,0,0,55.47,25.44Zm2-.71a5.55,5.55,0,0,1,3.2-6.93,5.07,5.07,0,0,1,6.51,3.41,5.55,5.55,0,0,1-3.2,6.93A5.07,5.07,0,0,1,57.42,24.73Z"/><path class="cls-2" d="M30.59,48.54a1.16,1.16,0,0,1-1.6.58,1.31,1.31,0,0,1-.54-1.7,1.16,1.16,0,0,1,1.6-.58A1.31,1.31,0,0,1,30.59,48.54Z"/><path d="M9.4,32.55,3.53,70.36a1.78,1.78,0,0,1-2,1.48h0a1.78,1.78,0,0,1-1.48-2L5.89,32l.56-3.58Z"/><path d="M12,0c4.41,9.28,2.45,17.5.49,20.81a17.43,17.43,0,0,0-2.28,6.37l-.55,3.58L6.73,26.64a35,35,0,0,0,1.19-7.7C8.26,13.85,12,0,12,0Z"/><circle class="cls-2" cx="7.37" cy="33.47" r="0.6"/></g></g></svg>