<svg xmlns="http://www.w3.org/2000/svg" viewBox="0 0 32.83 75.02"><defs><style>.cls-1{fill:#fff;stroke:#231f20;stroke-miterlimit:10;stroke-width:2px;}.cls-2{fill:#231f20;}</style></defs><g id="Layer_2" data-name="Layer 2"><g id="Layer_1-2" data-name="Layer 1"><path class="cls-1" d="M18.91,51.17V6.76a5.76,5.76,0,0,0-11.52,0V51.17a12.15,12.15,0,1,0,11.52,0Z"/><circle class="cls-2" cx="13.15" cy="61.87" r="9.35"/><rect class="cls-2" x="10.26" y="18.16" width="5.79" height="35.16"/><path class="cls-2" d="M31.55,10.23H21.71v2.54h9.84a1.27,1.27,0,1,0,0-2.54Z"/><path class="cls-2" d="M31.55,18.56H21.71v2.55h9.84a1.28,1.28,0,1,0,0-2.55Z"/><path class="cls-2" d="M31.55,26.9H21.71v2.55h9.84a1.28,1.28,0,1,0,0-2.55Z"/><path class="cls-2" d="M31.55,35.24H21.71v2.55h9.84a1.28,1.28,0,1,0,0-2.55Z"/><path class="cls-2" d="M31.55,43.58H21.71v2.55h9.84a1.28,1.28,0,1,0,0-2.55Z"/></g></g></svg>