<svg xmlns="http://www.w3.org/2000/svg" viewBox="0 0 40.23 74.43"><defs><style>.cls-1{fill:#3a3838;}.cls-2{fill:#fff;}.cls-3{fill:#231f20;}.cls-4{fill:none;stroke:#231f20;stroke-linecap:round;stroke-miterlimit:10;}</style></defs><g id="Layer_2" data-name="Layer 2"><g id="Layer_1-2" data-name="Layer 1"><path class="cls-1" d="M35.86,11.36a.52.52,0,0,0,.29-.46.51.51,0,0,0-.51-.51H35.2a.5.5,0,0,0,.24-.41v0a.51.51,0,0,0-.5-.5H5.29a.51.51,0,0,0-.5.5v0a.5.5,0,0,0,.24.41H4.59a.51.51,0,0,0-.51.51.52.52,0,0,0,.29.46A5.14,5.14,0,0,0,0,16.44V70.71c0,2.05,9,3.72,20.11,3.72s20.12-1.67,20.12-3.72V16.44A5.14,5.14,0,0,0,35.86,11.36Z"/><path class="cls-2" d="M20.11,0C8.25,0,0,.74,0,.74v8.8H40.23V.74S32,0,20.11,0Z"/><rect class="cls-2" x="4.67" y="23.7" width="30.89" height="30.89"/><path class="cls-3" d="M11.68,49.6l1.56-2.29H12L11,48.89l-.93-1.54a1.21,1.21,0,0,0,.79-.47,1.42,1.42,0,0,0,.27-.88,1.54,1.54,0,0,0-.15-.72,1.27,1.27,0,0,0-.4-.46,1.83,1.83,0,0,0-.59-.24,3.23,3.23,0,0,0-.71-.07H7.41v4.91H8.49v-2h.2l1.5,2.16-1.7,2.53H9.76l1.15-1.95,1.18,1.95h1.34ZM8.49,45.42H9.2l.3,0a1.07,1.07,0,0,1,.27.07.52.52,0,0,1,.19.17A.56.56,0,0,1,10,46a.51.51,0,0,1-.09.32.6.6,0,0,1-.22.16,1.24,1.24,0,0,1-.29.06H8.49Z"/><line class="cls-4" x1="8.49" y1="28.32" x2="29.66" y2="28.32"/><line class="cls-4" x1="8.49" y1="30.92" x2="23.45" y2="30.92"/><line class="cls-4" x1="8.49" y1="36.11" x2="15.97" y2="36.11"/><line class="cls-4" x1="8.49" y1="33.51" x2="27.83" y2="33.51"/></g></g></svg>