<svg xmlns="http://www.w3.org/2000/svg" viewBox="0 0 170.82 170.82"><defs><style>.cls-1{fill:#3e96d2;}.cls-2{fill:#b5b0a7;}.cls-3{fill:#cec8bc;}.cls-4{fill:#ebe5da;}.cls-5{fill:#fff;opacity:0.5;}</style></defs><g id="Layer_2" data-name="Layer 2"><g id="Layer_1-2" data-name="Layer 1"><circle class="cls-1" cx="85.41" cy="85.41" r="85.41"/><path class="cls-2" d="M80.15,73a9.85,9.85,0,0,0-.86-.85l0,0-.11-.07a9.75,9.75,0,0,0-2-1.36c-3.47-2.44-9.37-6.85-12.86-9.89A138.13,138.13,0,0,0,37.81,30.61l0,0c-4.07,3.39-3.21,11,4.38,19.72,5.14,5.94,12,10.89,17.22,12.43C63,67.11,66.43,71.93,67.68,76A9,9,0,0,0,70,81.49L94.7,110.08c1.33,1.54,13.41,13.6,14.39,14.73.83,1,13.1,17,13.1,17,3,3.41,7.63,4.28,10.45,1.93s2.71-7-.25-10.43c0,0-13.89-14.16-14.75-15.16-1-1.17-11.23-14.86-12.61-16.45Z"/><path class="cls-3" d="M132.39,133.34c3,3.41,3.07,8.08.25,10.43h0c-2.82,2.35-7.49,1.48-10.45-1.93,0,0-12.27-16.06-13.1-17-1-1.13-13.06-13.19-14.39-14.73L70,81.49c-3-3.41-3.07-8.08-.25-10.43h0c2.82-2.35,7.5-1.49,10.45,1.93L105,101.73c1.38,1.59,11.6,15.28,12.61,16.45C118.5,119.18,132.39,133.34,132.39,133.34Z"/><path class="cls-4" d="M54.79,53.64c.94-.79,4.42,1.61,8.62,5.73a138.8,138.8,0,0,0-25.6-28.76l0,0c-4.07,3.39-3.21,11,4.38,19.72C47.16,56.13,53.81,61,59,62.64,55.62,58,53.86,54.41,54.79,53.64Z"/><path class="cls-5" d="M131.88,135.51a1.91,1.91,0,0,1-.14,2.72l.14-.12a2,2,0,0,1-2.75-.31L76.25,76.72A1.89,1.89,0,0,1,76.39,74l-.14.11a2,2,0,0,1,2.75.31l24.84,28.7,12,16.05Z"/><path class="cls-5" d="M38.25,32.12S51.07,43.49,60.14,55.78c0,0-10.39-9.36-12.92-12.58C45.49,41,38.25,32.12,38.25,32.12Z"/></g></g></svg>